<?xml version="1.0"?>
<svg xmlns="http://www.w3.org/2000/svg">
    <defs>
        <symbol id="meeting">
            <path
                d="M58,45H50a1,1,0,0,1-1-1V37l-1.2679,1.2678A2.5,2.5,0,0,1,45.9644,39H41.67a.67.67,0,0,1-.67-.67v-.7444a.75.75,0,0,1,.568-.7276L45,36l4.1026-5.7437A3,3,0,0,1,51.544,29H55a4,4,0,0,1,4,4V44A1,1,0,0,1,58,45ZM54,27a5,5,0,1,1,5-5A5,5,0,0,1,54,27ZM38,39H26a1,1,0,0,1-1-1V33a4,4,0,0,1,4-4h6a4,4,0,0,1,4,4v5A1,1,0,0,1,38,39ZM32,27a5,5,0,1,1,5-5A5,5,0,0,1,32,27ZM22.33,39H18.0355a2.5,2.5,0,0,1-1.7676-.7322L15,37v7a1,1,0,0,1-1,1H6a1,1,0,0,1-1-1V33a4,4,0,0,1,4-4h3.456a2.9994,2.9994,0,0,1,2.4411,1.2563L19,36l3.4321.858A.75.75,0,0,1,23,37.5856V38.33A.67.67,0,0,1,22.33,39ZM10,27a5,5,0,1,1,5-5A5,5,0,0,1,10,27ZM20,41H44a1,1,0,0,1,1,1v2a1,1,0,0,1-1,1H20a1,1,0,0,1-1-1V42A1,1,0,0,1,20,41Z"
                fill-rule="evenodd"></path>
        </symbol>
        <symbol id="video-camera">
            <path
                d="M56.7761,45.8685a2,2,0,0,1-2.18-.4336l-10-10a2,2,0,0,1-.586-1.4141v-4a2,2,0,0,1,.586-1.4141l10-10a2,2,0,0,1,3.414,1.4141v24A2,2,0,0,1,56.7761,45.8685ZM12.01,16.0208h24a6,6,0,0,1,6,6v20a6,6,0,0,1-6,6h-24a6,6,0,0,1-6-6v-20A6,6,0,0,1,12.01,16.0208Z"
                fill-rule="evenodd"></path>
        </symbol>
        <symbol id="friends">
            <path
                d="M63.006,52.0209,37.99,52.0175a.9946.9946,0,0,1-.9967-.94,9.3927,9.3927,0,0,0-1.7054-5.5065,1.2507,1.2507,0,0,1,.517-1.96l.0787-.0292c4.34-1.6118,5.8338-3.1989,6.0916-7.1406a9.3845,9.3845,0,0,1-2.0107-1.7381,9.4759,9.4759,0,0,1-1.9072-4.68,1.4073,1.4073,0,0,1-.1463.0094c-1.0858,0-1.9078-2.29-1.9078-3.9s.558-2.1,1.09-2.1c.1114,0,.2146.0055.314.0139a13.5669,13.5669,0,0,1-.3971-3.0886c0-3.9034,1.0952-6.6059,4.4393-7.0867,1.8508-1.2841,4.6493-1.8507,8.2235-1.8507,2.2867,0,.3817,1.5642,2.53,2.0209,1.33.2827,3.8068,1.2254,3.8068,6.9165a13.568,13.568,0,0,1-.3968,3.0886c.0991-.0084.2026-.0139.314-.0139.5322,0,1.09.49,1.09,2.1s-.8217,3.9-1.9075,3.9a1.4078,1.4078,0,0,1-.1466-.0094,9.473,9.473,0,0,1-1.9072,4.68,9.3508,9.3508,0,0,1-1.988,1.723c.2546,3.9529,1.7466,5.5418,6.0925,7.1557,4.5262,1.6809,6.5841,2.8386,6.8478,7.369A1.01,1.01,0,0,1,63.006,52.0209ZM10.0088,36.0245c-1.235,0-5.0008-3.0664-5.0008-10.4022,0-8.5946,4.935-13.6027,10.8355-13.6027,2.824,0,4.153.13,5.6671,1.5013,4.3219,0,8.5026,3.2055,8.5026,12.1014,0,7.2786-3.7275,10.4022-5.0011,10.4022-.4435,0-.78-.3881-1.2768-.8936a10.0621,10.0621,0,0,1-1.668,1.3382c.2631,3.9213,1.7611,5.5049,6.095,7.1129,4.53,1.6809,6.59,2.8386,6.8538,7.3689a1.0109,1.0109,0,0,1-1.0033,1.07H1.0159a1.0112,1.0112,0,0,1-1.0033-1.07c.264-4.53,2.3238-5.688,6.8538-7.3689,4.332-1.6073,5.8306-3.19,6.0947-7.1074a10.06,10.06,0,0,1-1.684-1.3525C10.7757,35.6319,10.4412,36.0245,10.0088,36.0245Z"
                fill-rule="evenodd"></path>
        </symbol>
        <symbol id="search">
            <path
                d="M29.01,10.0209A18.9741,18.9741,0,0,1,44.258,40.3225l10.2571,8.6757a3.9206,3.9206,0,1,1-5.5273,5.5273L40.31,44.27a18.9914,18.9914,0,1,1-11.3-34.2491Zm0,34a15,15,0,1,0-15-15A15,15,0,0,0,29.01,44.0208Z"
                fill-rule="evenodd"></path>
        </symbol>
        <symbol id="other">
            <path
                d="M53.0208,32.0208a5,5,0,1,1-5-5A5,5,0,0,1,53.0208,32.0208Zm-16,0a5,5,0,1,1-5-5A5,5,0,0,1,37.0209,32.0208Zm-21-5a5,5,0,1,1-5,5A5,5,0,0,1,16.0207,27.0209Z"
                fill-rule="evenodd"></path>
        </symbol>
        <symbol id="remix">
            <g clip-path="url(#remix-logo-path)">
                <path fill-rule="evenodd" clip-rule="evenodd"
                    d="M392.946 364.768C397.201 419.418 397.201 445.036 397.201 473H270.756C270.756 466.909 270.865 461.337 270.975 455.687C271.317 438.123 271.674 419.807 268.828 382.819C265.067 328.667 241.748 316.634 198.871 316.634H160.883H0V218.109H204.889C259.049 218.109 286.13 201.633 286.13 158.011C286.13 119.654 259.049 96.4098 204.889 96.4098H0V0H227.456C350.069 0 411 57.9117 411 150.42C411 219.613 368.123 264.739 310.201 272.26C359.096 282.037 387.681 309.865 392.946 364.768Z"
                />
                <path
                    d="M0 473V399.553H133.697C156.029 399.553 160.878 416.116 160.878 425.994V473H0Z"
                />
            </g>
            <defs>
                <clipPath id="remix-logo-path">
                    <rect width="411" height="473" fill="white" />
                </clipPath>
            </defs>
        </symbol>
        <symbol id="meetup">
            <path
                d="M174.562 18.375C172.126 18.375 169.789 19.343 168.066 21.066C166.343 22.7889 165.375 25.1258 165.375 27.5625C165.375 29.9992 166.343 32.3361 168.066 34.059C169.789 35.782 172.126 36.75 174.562 36.75C176.999 36.75 179.336 35.782 181.059 34.059C182.782 32.3361 183.75 29.9992 183.75 27.5625C183.75 25.1258 182.782 22.7889 181.059 21.066C179.336 19.343 176.999 18.375 174.562 18.375ZM339.938 36.75C332.627 36.75 325.617 39.6539 320.448 44.8229C315.279 49.9918 312.375 57.0025 312.375 64.3125C312.375 71.6225 315.279 78.6332 320.448 83.8021C325.617 88.9711 332.627 91.875 339.938 91.875C347.248 91.875 354.258 88.9711 359.427 83.8021C364.596 78.6332 367.5 71.6225 367.5 64.3125C367.5 57.0025 364.596 49.9918 359.427 44.8229C354.258 39.6539 347.248 36.75 339.938 36.75ZM257.25 91.875C209.163 91.875 168.384 122.72 153.316 165.662C109.014 167.206 73.5 203.375 73.5 248.062C73.5 261.054 76.7662 273.197 82.1133 284.131C65.4472 300.76 55.125 323.731 55.125 349.125C55.125 393.629 86.7808 430.736 128.804 439.17C128.786 439.794 128.625 440.375 128.625 441C128.625 491.733 169.767 532.875 220.5 532.875C242.789 532.875 262.942 524.625 278.855 511.414C292.158 524.68 310.501 532.875 330.75 532.875C365.075 532.875 393.671 509.234 401.738 477.427C454.419 473.954 496.125 430.251 496.125 376.688C496.125 355.52 489.603 335.886 478.468 319.66C489.346 308.139 496.125 292.714 496.125 275.625C496.125 249.882 480.9 227.847 459.052 217.557C459.181 215.481 459.375 213.426 459.375 211.312C459.375 155.489 414.136 110.25 358.312 110.25C346.865 110.25 335.907 112.231 325.654 115.741C306.856 100.839 283.104 91.875 257.25 91.875ZM128.625 110.25C123.752 110.25 119.078 112.186 115.632 115.632C112.186 119.078 110.25 123.752 110.25 128.625C110.25 133.498 112.186 138.172 115.632 141.618C119.078 145.064 123.752 147 128.625 147C133.498 147 138.172 145.064 141.618 141.618C145.064 138.172 147 133.498 147 128.625C147 123.752 145.064 119.078 141.618 115.632C138.172 112.186 133.498 110.25 128.625 110.25ZM496.125 165.375C491.252 165.375 486.578 167.311 483.132 170.757C479.686 174.203 477.75 178.877 477.75 183.75C477.75 188.623 479.686 193.297 483.132 196.743C486.578 200.189 491.252 202.125 496.125 202.125C500.998 202.125 505.672 200.189 509.118 196.743C512.564 193.297 514.5 188.623 514.5 183.75C514.5 178.877 512.564 174.203 509.118 170.757C505.672 167.311 500.998 165.375 496.125 165.375ZM312.483 183.606C315.17 183.365 318.157 183.503 321.634 184.073C331.024 185.433 336.469 191.863 343.598 198.644C349.368 204.524 353.552 200.896 356.841 198.967C361.931 196.027 365.907 193.45 381.066 193.799C396.905 194.13 415.016 199.909 418.857 227.068C423.046 257.515 370.074 335.697 373.565 371.914C376.046 397.382 418.847 379.245 422.338 402.563C426.895 432.864 369.077 421.574 356.159 415.124C335.451 404.706 322.786 381.145 327.987 357.846C332.286 340.426 370.406 269.253 371.986 258.614C373.346 247.295 367.493 246.268 363.983 246.268C359.114 245.937 355.609 248.218 350.74 255.348C346.55 261.798 298.997 358.537 294.825 366.567C281.577 392.145 247.29 387.954 251.149 362.045C252.16 354.346 282.594 285.123 283.844 274.154C284.854 267.704 283.529 260.544 277.061 257.035C270.611 253.746 262.812 258.972 260.552 262.813C257.263 268.362 214.595 381.874 210.056 390.253C202.027 404.733 193.86 409.276 181.31 409.956C151.891 411.647 129.851 386.724 139.571 356.626C143.761 343.047 172.139 240.972 186.729 215.045C196.468 197.625 223.298 184.405 241.746 192.435C251.485 196.625 265.073 203.39 268.914 205.319C277.973 209.619 287.665 198.29 291.524 195.019C299.076 188.487 304.421 184.33 312.483 183.606ZM560.438 238.875C558.001 238.875 555.664 239.843 553.941 241.566C552.218 243.289 551.25 245.626 551.25 248.062C551.25 250.499 552.218 252.836 553.941 254.559C555.664 256.282 558.001 257.25 560.438 257.25C562.874 257.25 565.211 256.282 566.934 254.559C568.657 252.836 569.625 250.499 569.625 248.062C569.625 245.626 568.657 243.289 566.934 241.566C565.211 239.843 562.874 238.875 560.438 238.875ZM27.5625 257.25C20.2525 257.25 13.2418 260.154 8.07287 265.323C2.9039 270.492 0 277.502 0 284.812C0 292.123 2.9039 299.133 8.07287 304.302C13.2418 309.471 20.2525 312.375 27.5625 312.375C34.8725 312.375 41.8832 309.471 47.0521 304.302C52.2211 299.133 55.125 292.123 55.125 284.812C55.125 277.502 52.2211 270.492 47.0521 265.323C41.8832 260.154 34.8725 257.25 27.5625 257.25ZM532.875 294C528.002 294 523.328 295.936 519.882 299.382C516.436 302.828 514.5 307.502 514.5 312.375C514.5 317.248 516.436 321.922 519.882 325.368C523.328 328.814 528.002 330.75 532.875 330.75C537.748 330.75 542.422 328.814 545.868 325.368C549.314 321.922 551.25 317.248 551.25 312.375C551.25 307.502 549.314 302.828 545.868 299.382C542.422 295.936 537.748 294 532.875 294ZM101.062 459.375C98.6258 459.375 96.2889 460.343 94.566 462.066C92.843 463.789 91.875 466.126 91.875 468.562C91.875 470.999 92.843 473.336 94.566 475.059C96.2889 476.782 98.6258 477.75 101.062 477.75C103.499 477.75 105.836 476.782 107.559 475.059C109.282 473.336 110.25 470.999 110.25 468.562C110.25 466.126 109.282 463.789 107.559 462.066C105.836 460.343 103.499 459.375 101.062 459.375ZM431.812 496.125C424.502 496.125 417.492 499.029 412.323 504.198C407.154 509.367 404.25 516.377 404.25 523.688C404.25 530.998 407.154 538.008 412.323 543.177C417.492 548.346 424.502 551.25 431.812 551.25C439.123 551.25 446.133 548.346 451.302 543.177C456.471 538.008 459.375 530.998 459.375 523.688C459.375 516.377 456.471 509.367 451.302 504.198C446.133 499.029 439.123 496.125 431.812 496.125ZM275.625 532.875C270.752 532.875 266.078 534.811 262.632 538.257C259.186 541.703 257.25 546.377 257.25 551.25C257.25 556.123 259.186 560.797 262.632 564.243C266.078 567.689 270.752 569.625 275.625 569.625C280.498 569.625 285.172 567.689 288.618 564.243C292.064 560.797 294 556.123 294 551.25C294 546.377 292.064 541.703 288.618 538.257C285.172 534.811 280.498 532.875 275.625 532.875Z"
            />
        </symbol>
        <symbol id="twitter">
            <path
                d="M269.801 0C418.807 0.00013198 539.601 120.794 539.602 269.801C539.601 418.807 418.807 539.601 269.801 539.602C120.794 539.602 0.000148441 418.807 0 269.801C9.52243e-05 120.794 120.794 3.71033e-05 269.801 0ZM232.634 285.887L103.1 425.821H132.255L245.664 303.304L337.292 425.821H436.501L300.533 244.031L421.104 113.775H391.949L287.509 226.608L203.12 113.775H103.911L232.634 285.887ZM393.622 404.349H348.046L146.785 135.249H192.361L393.622 404.349Z"
            />
        </symbol>
        <symbol id="linkedin">
            <path
                d="M264.035 222.048C263.869 222.305 263.702 222.558 263.54 222.812H264.035V222.048Z"
            />
            <path fill-rule="evenodd" clip-rule="evenodd"
                d="M454.716 494C474.755 494 491 478.158 491 458.613V35.3867C491 15.8484 474.755 0 454.716 0H36.2842C16.2448 0 0.000193432 15.8484 0 35.3867V458.613C0.000202216 478.158 16.2448 494 36.2842 494H454.716ZM111.272 160.004C86.3851 160.004 70.2921 142.875 70.292 121.469C70.292 99.5804 86.8788 82.9268 112.247 82.9268C137.618 82.9268 153.233 99.5804 153.715 121.469C153.715 142.875 137.617 160.004 111.756 160.004H111.272ZM189.873 413.529C189.873 413.529 190.848 211.394 189.875 190.461H264.035V222.048C273.89 206.848 291.527 185.227 330.87 185.227C379.662 185.227 416.249 217.108 416.249 285.625V413.529H342.095V294.192C342.095 264.205 331.36 243.749 304.524 243.749C284.037 243.749 271.835 257.545 266.474 270.865C264.515 275.631 264.033 282.291 264.033 288.958V413.529H189.873ZM74.6758 190.461H148.837V413.529H74.6758V190.461Z"
            />
        </symbol>
    </defs>
</svg>