<?xml version="1.0"?>
<svg xmlns="http://www.w3.org/2000/svg">
    <defs>
        <symbol id="meeting">
            <path
                d="M58,45H50a1,1,0,0,1-1-1V37l-1.2679,1.2678A2.5,2.5,0,0,1,45.9644,39H41.67a.67.67,0,0,1-.67-.67v-.7444a.75.75,0,0,1,.568-.7276L45,36l4.1026-5.7437A3,3,0,0,1,51.544,29H55a4,4,0,0,1,4,4V44A1,1,0,0,1,58,45ZM54,27a5,5,0,1,1,5-5A5,5,0,0,1,54,27ZM38,39H26a1,1,0,0,1-1-1V33a4,4,0,0,1,4-4h6a4,4,0,0,1,4,4v5A1,1,0,0,1,38,39ZM32,27a5,5,0,1,1,5-5A5,5,0,0,1,32,27ZM22.33,39H18.0355a2.5,2.5,0,0,1-1.7676-.7322L15,37v7a1,1,0,0,1-1,1H6a1,1,0,0,1-1-1V33a4,4,0,0,1,4-4h3.456a2.9994,2.9994,0,0,1,2.4411,1.2563L19,36l3.4321.858A.75.75,0,0,1,23,37.5856V38.33A.67.67,0,0,1,22.33,39ZM10,27a5,5,0,1,1,5-5A5,5,0,0,1,10,27ZM20,41H44a1,1,0,0,1,1,1v2a1,1,0,0,1-1,1H20a1,1,0,0,1-1-1V42A1,1,0,0,1,20,41Z"
                fill-rule="evenodd"></path>
        </symbol>
        <symbol id="video-camera">
            <path
                d="M56.7761,45.8685a2,2,0,0,1-2.18-.4336l-10-10a2,2,0,0,1-.586-1.4141v-4a2,2,0,0,1,.586-1.4141l10-10a2,2,0,0,1,3.414,1.4141v24A2,2,0,0,1,56.7761,45.8685ZM12.01,16.0208h24a6,6,0,0,1,6,6v20a6,6,0,0,1-6,6h-24a6,6,0,0,1-6-6v-20A6,6,0,0,1,12.01,16.0208Z"
                fill-rule="evenodd"></path>
        </symbol>
        <symbol id="friends">
            <path
                d="M63.006,52.0209,37.99,52.0175a.9946.9946,0,0,1-.9967-.94,9.3927,9.3927,0,0,0-1.7054-5.5065,1.2507,1.2507,0,0,1,.517-1.96l.0787-.0292c4.34-1.6118,5.8338-3.1989,6.0916-7.1406a9.3845,9.3845,0,0,1-2.0107-1.7381,9.4759,9.4759,0,0,1-1.9072-4.68,1.4073,1.4073,0,0,1-.1463.0094c-1.0858,0-1.9078-2.29-1.9078-3.9s.558-2.1,1.09-2.1c.1114,0,.2146.0055.314.0139a13.5669,13.5669,0,0,1-.3971-3.0886c0-3.9034,1.0952-6.6059,4.4393-7.0867,1.8508-1.2841,4.6493-1.8507,8.2235-1.8507,2.2867,0,.3817,1.5642,2.53,2.0209,1.33.2827,3.8068,1.2254,3.8068,6.9165a13.568,13.568,0,0,1-.3968,3.0886c.0991-.0084.2026-.0139.314-.0139.5322,0,1.09.49,1.09,2.1s-.8217,3.9-1.9075,3.9a1.4078,1.4078,0,0,1-.1466-.0094,9.473,9.473,0,0,1-1.9072,4.68,9.3508,9.3508,0,0,1-1.988,1.723c.2546,3.9529,1.7466,5.5418,6.0925,7.1557,4.5262,1.6809,6.5841,2.8386,6.8478,7.369A1.01,1.01,0,0,1,63.006,52.0209ZM10.0088,36.0245c-1.235,0-5.0008-3.0664-5.0008-10.4022,0-8.5946,4.935-13.6027,10.8355-13.6027,2.824,0,4.153.13,5.6671,1.5013,4.3219,0,8.5026,3.2055,8.5026,12.1014,0,7.2786-3.7275,10.4022-5.0011,10.4022-.4435,0-.78-.3881-1.2768-.8936a10.0621,10.0621,0,0,1-1.668,1.3382c.2631,3.9213,1.7611,5.5049,6.095,7.1129,4.53,1.6809,6.59,2.8386,6.8538,7.3689a1.0109,1.0109,0,0,1-1.0033,1.07H1.0159a1.0112,1.0112,0,0,1-1.0033-1.07c.264-4.53,2.3238-5.688,6.8538-7.3689,4.332-1.6073,5.8306-3.19,6.0947-7.1074a10.06,10.06,0,0,1-1.684-1.3525C10.7757,35.6319,10.4412,36.0245,10.0088,36.0245Z"
                fill-rule="evenodd"></path>
        </symbol>
        <symbol id="search">
            <path
                d="M29.01,10.0209A18.9741,18.9741,0,0,1,44.258,40.3225l10.2571,8.6757a3.9206,3.9206,0,1,1-5.5273,5.5273L40.31,44.27a18.9914,18.9914,0,1,1-11.3-34.2491Zm0,34a15,15,0,1,0-15-15A15,15,0,0,0,29.01,44.0208Z"
                fill-rule="evenodd"></path>
        </symbol>
        <symbol id="other">
            <path
                d="M53.0208,32.0208a5,5,0,1,1-5-5A5,5,0,0,1,53.0208,32.0208Zm-16,0a5,5,0,1,1-5-5A5,5,0,0,1,37.0209,32.0208Zm-21-5a5,5,0,1,1-5,5A5,5,0,0,1,16.0207,27.0209Z"
                fill-rule="evenodd"></path>
        </symbol>
        <symbol id="remix">
            <g clip-path="url(#clip0_2_21)">
                <path fill-rule="evenodd" clip-rule="evenodd"
                    d="M373.839 347.031C377.887 399.023 377.887 423.396 377.887 450H257.59C257.59 444.205 257.694 438.904 257.799 433.529C258.124 416.819 258.464 399.394 255.756 364.204C252.178 312.685 229.993 301.237 189.201 301.237H153.06H0V207.503H194.926C246.453 207.503 272.217 191.828 272.217 150.328C272.217 113.836 246.453 91.7218 194.926 91.7218H0V0H216.396C333.047 0 391.015 55.0957 391.015 143.106C391.015 208.934 350.223 251.866 295.117 259.021C341.635 268.323 368.83 294.798 373.839 347.031Z"
                />
                <path
                    d="M0 450V380.124H127.196C148.442 380.124 153.055 395.882 153.055 405.28V450H0Z"
                />
            </g>
            <defs>
                <clipPath id="clip0_2_21">
                    <rect width="391" height="450" />
                </clipPath>
            </defs>
        </symbol>
        <symbol id="meetup">
            <g clip-path="url(#clip0_2_19)">
                <path
                    d="M174.562 0.375C172.126 0.375 169.789 1.34297 168.066 3.06596C166.343 4.78895 165.375 7.12582 165.375 9.5625C165.375 11.9992 166.343 14.3361 168.066 16.059C169.789 17.782 172.126 18.75 174.562 18.75C176.999 18.75 179.336 17.782 181.059 16.059C182.782 14.3361 183.75 11.9992 183.75 9.5625C183.75 7.12582 182.782 4.78895 181.059 3.06596C179.336 1.34297 176.999 0.375 174.562 0.375ZM339.938 18.75C332.627 18.75 325.617 21.6539 320.448 26.8229C315.279 31.9918 312.375 39.0025 312.375 46.3125C312.375 53.6225 315.279 60.6332 320.448 65.8021C325.617 70.9711 332.627 73.875 339.938 73.875C347.248 73.875 354.258 70.9711 359.427 65.8021C364.596 60.6332 367.5 53.6225 367.5 46.3125C367.5 39.0025 364.596 31.9918 359.427 26.8229C354.258 21.6539 347.248 18.75 339.938 18.75ZM257.25 73.875C209.163 73.875 168.384 104.72 153.316 147.662C109.014 149.206 73.5 185.374 73.5 230.062C73.5 243.054 76.7662 255.197 82.1133 266.131C65.4472 282.76 55.125 305.731 55.125 331.125C55.125 375.629 86.7808 412.736 128.804 421.17C128.786 421.794 128.625 422.375 128.625 423C128.625 473.733 169.767 514.875 220.5 514.875C242.789 514.875 262.942 506.625 278.855 493.414C292.158 506.68 310.501 514.875 330.75 514.875C365.074 514.875 393.671 491.234 401.738 459.427C454.419 455.954 496.125 412.251 496.125 358.688C496.125 337.52 489.603 317.886 478.468 301.66C489.346 290.139 496.125 274.714 496.125 257.625C496.125 231.882 480.9 209.847 459.052 199.557C459.181 197.481 459.375 195.426 459.375 193.312C459.375 137.489 414.136 92.25 358.312 92.25C346.865 92.25 335.907 94.2313 325.654 97.741C306.856 82.8388 283.104 73.875 257.25 73.875ZM128.625 92.25C123.752 92.25 119.078 94.1859 115.632 97.6319C112.186 101.078 110.25 105.752 110.25 110.625C110.25 115.498 112.186 120.172 115.632 123.618C119.078 127.064 123.752 129 128.625 129C133.498 129 138.172 127.064 141.618 123.618C145.064 120.172 147 115.498 147 110.625C147 105.752 145.064 101.078 141.618 97.6319C138.172 94.1859 133.498 92.25 128.625 92.25ZM496.125 147.375C491.252 147.375 486.578 149.311 483.132 152.757C479.686 156.203 477.75 160.877 477.75 165.75C477.75 170.623 479.686 175.297 483.132 178.743C486.578 182.189 491.252 184.125 496.125 184.125C500.998 184.125 505.672 182.189 509.118 178.743C512.564 175.297 514.5 170.623 514.5 165.75C514.5 160.877 512.564 156.203 509.118 152.757C505.672 149.311 500.998 147.375 496.125 147.375ZM312.483 165.606C315.17 165.365 318.157 165.503 321.634 166.073C331.024 167.433 336.469 173.863 343.598 180.644C349.368 186.524 353.552 182.896 356.841 180.967C361.931 178.027 365.907 175.45 381.066 175.799C396.905 176.13 415.016 181.909 418.857 209.068C423.046 239.515 370.074 317.697 373.565 353.914C376.046 379.382 418.847 361.245 422.338 384.563C426.895 414.864 369.077 403.574 356.159 397.124C335.451 386.706 322.786 363.145 327.987 339.846C332.286 322.426 370.406 251.253 371.986 240.614C373.346 229.295 367.493 228.268 363.983 228.268C359.114 227.937 355.609 230.218 350.74 237.348C346.55 243.798 298.997 340.537 294.825 348.567C281.577 374.145 247.29 369.954 251.149 344.045C252.16 336.346 282.594 267.123 283.844 256.154C284.854 249.704 283.529 242.544 277.061 239.035C270.611 235.746 262.812 240.972 260.552 244.813C257.263 250.362 214.595 363.874 210.056 372.253C202.027 386.733 193.86 391.276 181.31 391.956C151.891 393.647 129.851 368.724 139.571 338.626C143.761 325.047 172.139 222.972 186.729 197.045C196.468 179.625 223.298 166.405 241.746 174.435C251.485 178.625 265.073 185.39 268.914 187.319C277.973 191.619 287.665 180.29 291.524 177.019C299.076 170.487 304.422 166.33 312.483 165.606ZM560.438 220.875C558.001 220.875 555.664 221.843 553.941 223.566C552.218 225.289 551.25 227.626 551.25 230.062C551.25 232.499 552.218 234.836 553.941 236.559C555.664 238.282 558.001 239.25 560.438 239.25C562.874 239.25 565.211 238.282 566.934 236.559C568.657 234.836 569.625 232.499 569.625 230.062C569.625 227.626 568.657 225.289 566.934 223.566C565.211 221.843 562.874 220.875 560.438 220.875ZM27.5625 239.25C20.2525 239.25 13.2418 242.154 8.07287 247.323C2.9039 252.492 0 259.502 0 266.812C0 274.123 2.9039 281.133 8.07287 286.302C13.2418 291.471 20.2525 294.375 27.5625 294.375C34.8725 294.375 41.8832 291.471 47.0521 286.302C52.2211 281.133 55.125 274.123 55.125 266.812C55.125 259.502 52.2211 252.492 47.0521 247.323C41.8832 242.154 34.8725 239.25 27.5625 239.25ZM532.875 276C528.002 276 523.328 277.936 519.882 281.382C516.436 284.828 514.5 289.502 514.5 294.375C514.5 299.248 516.436 303.922 519.882 307.368C523.328 310.814 528.002 312.75 532.875 312.75C537.748 312.75 542.422 310.814 545.868 307.368C549.314 303.922 551.25 299.248 551.25 294.375C551.25 289.502 549.314 284.828 545.868 281.382C542.422 277.936 537.748 276 532.875 276ZM101.062 441.375C98.6258 441.375 96.2889 442.343 94.566 444.066C92.843 445.789 91.875 448.126 91.875 450.562C91.875 452.999 92.843 455.336 94.566 457.059C96.2889 458.782 98.6258 459.75 101.062 459.75C103.499 459.75 105.836 458.782 107.559 457.059C109.282 455.336 110.25 452.999 110.25 450.562C110.25 448.126 109.282 445.789 107.559 444.066C105.836 442.343 103.499 441.375 101.062 441.375ZM431.812 478.125C424.502 478.125 417.492 481.029 412.323 486.198C407.154 491.367 404.25 498.377 404.25 505.688C404.25 512.998 407.154 520.008 412.323 525.177C417.492 530.346 424.502 533.25 431.812 533.25C439.123 533.25 446.133 530.346 451.302 525.177C456.471 520.008 459.375 512.998 459.375 505.688C459.375 498.377 456.471 491.367 451.302 486.198C446.133 481.029 439.123 478.125 431.812 478.125ZM275.625 514.875C270.752 514.875 266.078 516.811 262.632 520.257C259.186 523.703 257.25 528.377 257.25 533.25C257.25 538.123 259.186 542.797 262.632 546.243C266.078 549.689 270.752 551.625 275.625 551.625C280.498 551.625 285.172 549.689 288.618 546.243C292.064 542.797 294 538.123 294 533.25C294 528.377 292.064 523.703 288.618 520.257C285.172 516.811 280.498 514.875 275.625 514.875Z"
                />
            </g>
            <defs>
                <clipPath id="clip0_2_19">
                    <rect width="570" height="552" />
                </clipPath>
            </defs>
        </symbol>
        <symbol id="twitter">
            <path
                d="M225.117 0C349.446 7.10678e-05 450.234 100.788 450.234 225.117C450.234 349.446 349.446 450.234 225.117 450.234C100.788 450.234 4.53098e-05 349.446 0 225.117C0 100.788 100.788 0 225.117 0ZM194.117 238.534L86.0762 355.25H110.394L204.985 253.062L281.41 355.25H364.158L250.751 203.623L351.315 94.9805H326.998L239.887 189.092L169.501 94.9805H86.7529L194.117 238.534ZM328.394 337.34H290.379L122.513 112.891H160.526L328.394 337.34Z"
            />
        </symbol>
        <symbol id="linkedin">
            <path
                d="M240.374 202.27C240.223 202.504 240.071 202.735 239.923 202.966H240.374V202.27Z"
            />
            <path fill-rule="evenodd" clip-rule="evenodd"
                d="M413.967 450C432.21 450 447 435.569 447 417.765V32.2349C447 14.4368 432.21 0 413.967 0H33.0326C14.789 0 0.000176098 14.4368 0 32.2349V417.765C0.000184095 435.569 14.789 450 33.0326 450H413.967ZM101.301 145.753C78.6439 145.752 63.993 130.149 63.9929 110.65C63.9929 90.7109 79.0933 75.5406 102.188 75.5406C125.286 75.5406 139.501 90.7109 139.94 110.65C139.94 130.149 125.285 145.753 101.741 145.753H101.301ZM172.858 376.697C172.858 376.697 173.746 192.566 172.86 173.497H240.374V202.27C249.346 188.424 265.402 168.729 301.22 168.729C345.639 168.729 378.948 197.771 378.948 260.185V376.697H311.439V267.989C311.439 240.673 301.665 222.039 277.235 222.039C258.584 222.039 247.475 234.606 242.594 246.74C240.811 251.081 240.372 257.148 240.372 263.221V376.697H172.858ZM67.9839 173.497H135.499V376.697H67.9839V173.497Z"
            />
        </symbol>
    </defs>
</svg>