<svg width="474" height="267" viewBox="0 0 474 267" fill="none" xmlns="http://www.w3.org/2000/svg">
<g filter="url(#filter0_di_206_1490)">
<path fill-rule="evenodd" clip-rule="evenodd" d="M114.44 106.735C115.347 118.471 115.347 123.972 115.347 129.977H88.4094C88.4094 128.669 88.4326 127.472 88.4558 126.259C88.5286 122.487 88.6047 118.554 87.9984 110.611C87.1974 98.9826 82.2297 96.3984 73.0952 96.3984H65.0022H30.7283V75.241H74.3772C85.9154 75.241 91.6841 71.7027 91.6841 62.3353C91.6841 54.0986 85.9154 49.1067 74.3772 49.1067H30.7283V28.4036H79.1845C105.306 28.4036 118.287 40.8397 118.287 60.7052C118.287 75.5639 109.152 85.2541 96.8124 86.8693C107.229 88.969 113.318 94.9448 114.44 106.735Z" fill="#E8F2FF"/>
<path d="M30.7283 129.977V114.204H59.2108C63.9684 114.204 65.0011 117.761 65.0011 119.882V129.977H30.7283Z" fill="#E8F2FF"/>
</g>
<g filter="url(#filter1_di_206_1490)">
<path d="M439.482 59.0435H412.784L400.633 76.1227L388.803 59.0435H360.187L385.925 94.3294L357.948 130.904H384.647L398.875 111.408L413.103 130.904H441.72L413.583 93.2014L439.482 59.0435Z" fill="#FFF0F1"/>
</g>
<g filter="url(#filter2_di_206_1490)">
<path d="M271.316 70.9528C268.279 62.5743 261.724 56.7739 249.094 56.7739C238.383 56.7739 230.71 61.608 226.873 69.5025V58.7076H200.974V130.567H226.873V95.282C226.873 84.487 229.91 77.3976 238.383 77.3976C246.217 77.3976 248.135 82.5534 248.135 92.3821V130.567H274.034V95.282C274.034 84.487 276.912 77.3976 285.545 77.3976C293.378 77.3976 295.137 82.5534 295.137 92.3821V130.567H321.036V85.4538C321.036 70.4693 315.28 56.7739 295.616 56.7739C283.626 56.7739 275.153 62.8965 271.316 70.9528Z" fill="#FFFAEA"/>
</g>
<g filter="url(#filter3_di_206_1490)">
<path d="M174.005 102.68C171.607 108.319 167.131 110.735 160.096 110.735C152.263 110.735 145.868 106.547 145.228 97.6846H195.267V90.4346C195.267 70.9389 182.638 54.5042 158.817 54.5042C136.595 54.5042 119.969 70.7777 119.969 93.4956C119.969 116.375 136.276 130.231 159.137 130.231C178.002 130.231 191.111 121.048 194.788 104.613L174.005 102.68ZM145.548 85.1172C146.507 78.35 150.185 73.1942 158.498 73.1942C166.171 73.1942 170.328 78.6723 170.648 85.1172H145.548Z" fill="#F1FFF0"/>
</g>
<g filter="url(#filter4_di_206_1490)">
<path d="M329.507 59.1848V131.045H355.405V59.1848H329.507ZM329.347 52.4177H355.565V29.5381H329.347V52.4177Z" fill="#FFF7FF"/>
</g>
<g filter="url(#filter5_d_206_1490)">
<path d="M77.1758 237H59.0508L86.668 157H108.465L136.043 237H117.918L97.8789 175.281H97.2539L77.1758 237ZM76.043 205.555H118.855V218.758H76.043V205.555ZM184.936 211.453V177H201.577V237H185.6V226.102H184.975C183.621 229.617 181.368 232.443 178.217 234.578C175.092 236.714 171.277 237.781 166.772 237.781C162.761 237.781 159.233 236.87 156.186 235.047C153.139 233.224 150.756 230.633 149.037 227.273C147.345 223.914 146.485 219.891 146.459 215.203V177H163.1V212.234C163.126 215.776 164.077 218.576 165.952 220.633C167.827 222.69 170.34 223.719 173.491 223.719C175.496 223.719 177.371 223.263 179.116 222.352C180.86 221.414 182.267 220.034 183.334 218.211C184.428 216.388 184.962 214.135 184.936 211.453ZM265.909 194.109L250.675 195.047C250.414 193.745 249.854 192.573 248.995 191.531C248.136 190.464 247.003 189.617 245.596 188.992C244.216 188.341 242.563 188.016 240.636 188.016C238.057 188.016 235.883 188.562 234.112 189.656C232.341 190.724 231.456 192.156 231.456 193.953C231.456 195.385 232.029 196.596 233.175 197.586C234.32 198.576 236.287 199.37 239.073 199.969L249.932 202.156C255.766 203.354 260.115 205.281 262.979 207.937C265.844 210.594 267.276 214.083 267.276 218.406C267.276 222.339 266.117 225.789 263.8 228.758C261.508 231.727 258.357 234.044 254.346 235.711C250.362 237.352 245.766 238.172 240.557 238.172C232.615 238.172 226.287 236.518 221.573 233.211C216.886 229.878 214.138 225.346 213.331 219.617L229.698 218.758C230.193 221.18 231.391 223.029 233.292 224.305C235.193 225.555 237.628 226.18 240.596 226.18C243.513 226.18 245.857 225.62 247.628 224.5C249.425 223.354 250.336 221.883 250.362 220.086C250.336 218.576 249.698 217.339 248.448 216.375C247.198 215.385 245.271 214.63 242.667 214.109L232.276 212.039C226.417 210.867 222.055 208.836 219.19 205.945C216.352 203.055 214.932 199.37 214.932 194.891C214.932 191.036 215.974 187.716 218.057 184.93C220.167 182.143 223.123 179.995 226.925 178.484C230.753 176.974 235.232 176.219 240.362 176.219C247.94 176.219 253.904 177.82 258.253 181.023C262.628 184.227 265.18 188.589 265.909 194.109ZM310.769 177V189.5H274.636V177H310.769ZM282.839 162.625H299.48V218.562C299.48 220.099 299.714 221.297 300.183 222.156C300.652 222.99 301.303 223.576 302.136 223.914C302.995 224.253 303.985 224.422 305.105 224.422C305.886 224.422 306.667 224.357 307.448 224.227C308.23 224.07 308.829 223.953 309.245 223.875L311.863 236.258C311.029 236.518 309.857 236.818 308.347 237.156C306.836 237.521 305.001 237.742 302.839 237.82C298.829 237.977 295.313 237.443 292.292 236.219C289.297 234.995 286.967 233.094 285.3 230.516C283.633 227.937 282.813 224.682 282.839 220.75V162.625ZM322.709 237V177H339.349V237H322.709ZM331.068 169.266C328.594 169.266 326.472 168.445 324.701 166.805C322.956 165.138 322.084 163.146 322.084 160.828C322.084 158.536 322.956 156.57 324.701 154.93C326.472 153.263 328.594 152.43 331.068 152.43C333.542 152.43 335.651 153.263 337.396 154.93C339.167 156.57 340.052 158.536 340.052 160.828C340.052 163.146 339.167 165.138 337.396 166.805C335.651 168.445 333.542 169.266 331.068 169.266ZM370.42 202.313V237H353.779V177H369.639V187.586H370.342C371.67 184.096 373.896 181.336 377.021 179.305C380.146 177.247 383.936 176.219 388.389 176.219C392.555 176.219 396.188 177.13 399.287 178.953C402.386 180.776 404.795 183.38 406.514 186.766C408.232 190.125 409.092 194.135 409.092 198.797V237H392.451V201.766C392.477 198.094 391.54 195.229 389.639 193.172C387.738 191.089 385.12 190.047 381.787 190.047C379.548 190.047 377.568 190.529 375.85 191.492C374.157 192.456 372.829 193.862 371.865 195.711C370.928 197.534 370.446 199.734 370.42 202.313Z" fill="white"/>
</g>
<defs>
<filter id="filter0_di_206_1490" x="2.72827" y="0.403564" width="143.558" height="157.573" filterUnits="userSpaceOnUse" color-interpolation-filters="sRGB">
<feFlood flood-opacity="0" result="BackgroundImageFix"/>
<feColorMatrix in="SourceAlpha" type="matrix" values="0 0 0 0 0 0 0 0 0 0 0 0 0 0 0 0 0 0 127 0" result="hardAlpha"/>
<feOffset/>
<feGaussianBlur stdDeviation="14"/>
<feComposite in2="hardAlpha" operator="out"/>
<feColorMatrix type="matrix" values="0 0 0 0 0.223529 0 0 0 0 0.572549 0 0 0 0 1 0 0 0 0.9 0"/>
<feBlend mode="normal" in2="BackgroundImageFix" result="effect1_dropShadow_206_1490"/>
<feBlend mode="normal" in="SourceGraphic" in2="effect1_dropShadow_206_1490" result="shape"/>
<feColorMatrix in="SourceAlpha" type="matrix" values="0 0 0 0 0 0 0 0 0 0 0 0 0 0 0 0 0 0 127 0" result="hardAlpha"/>
<feOffset/>
<feGaussianBlur stdDeviation="21"/>
<feComposite in2="hardAlpha" operator="arithmetic" k2="-1" k3="1"/>
<feColorMatrix type="matrix" values="0 0 0 0 0.223529 0 0 0 0 0.572549 0 0 0 0 1 0 0 0 1 0"/>
<feBlend mode="normal" in2="shape" result="effect2_innerShadow_206_1490"/>
</filter>
<filter id="filter1_di_206_1490" x="325.948" y="27.0435" width="147.772" height="135.86" filterUnits="userSpaceOnUse" color-interpolation-filters="sRGB">
<feFlood flood-opacity="0" result="BackgroundImageFix"/>
<feColorMatrix in="SourceAlpha" type="matrix" values="0 0 0 0 0 0 0 0 0 0 0 0 0 0 0 0 0 0 127 0" result="hardAlpha"/>
<feOffset/>
<feGaussianBlur stdDeviation="16"/>
<feComposite in2="hardAlpha" operator="out"/>
<feColorMatrix type="matrix" values="0 0 0 0 0.960784 0 0 0 0 0.2 0 0 0 0 0.258824 0 0 0 1 0"/>
<feBlend mode="normal" in2="BackgroundImageFix" result="effect1_dropShadow_206_1490"/>
<feBlend mode="normal" in="SourceGraphic" in2="effect1_dropShadow_206_1490" result="shape"/>
<feColorMatrix in="SourceAlpha" type="matrix" values="0 0 0 0 0 0 0 0 0 0 0 0 0 0 0 0 0 0 127 0" result="hardAlpha"/>
<feOffset/>
<feGaussianBlur stdDeviation="14"/>
<feComposite in2="hardAlpha" operator="arithmetic" k2="-1" k3="1"/>
<feColorMatrix type="matrix" values="0 0 0 0 0.960784 0 0 0 0 0.2 0 0 0 0 0.258824 0 0 0 1 0"/>
<feBlend mode="normal" in2="shape" result="effect2_innerShadow_206_1490"/>
</filter>
<filter id="filter2_di_206_1490" x="172.974" y="28.7739" width="176.062" height="129.793" filterUnits="userSpaceOnUse" color-interpolation-filters="sRGB">
<feFlood flood-opacity="0" result="BackgroundImageFix"/>
<feColorMatrix in="SourceAlpha" type="matrix" values="0 0 0 0 0 0 0 0 0 0 0 0 0 0 0 0 0 0 127 0" result="hardAlpha"/>
<feOffset/>
<feGaussianBlur stdDeviation="14"/>
<feComposite in2="hardAlpha" operator="out"/>
<feColorMatrix type="matrix" values="0 0 0 0 0.996078 0 0 0 0 0.8 0 0 0 0 0.105882 0 0 0 1 0"/>
<feBlend mode="normal" in2="BackgroundImageFix" result="effect1_dropShadow_206_1490"/>
<feBlend mode="normal" in="SourceGraphic" in2="effect1_dropShadow_206_1490" result="shape"/>
<feColorMatrix in="SourceAlpha" type="matrix" values="0 0 0 0 0 0 0 0 0 0 0 0 0 0 0 0 0 0 127 0" result="hardAlpha"/>
<feOffset/>
<feGaussianBlur stdDeviation="14"/>
<feComposite in2="hardAlpha" operator="arithmetic" k2="-1" k3="1"/>
<feColorMatrix type="matrix" values="0 0 0 0 0.996078 0 0 0 0 0.8 0 0 0 0 0.105882 0 0 0 1 0"/>
<feBlend mode="normal" in2="shape" result="effect2_innerShadow_206_1490"/>
</filter>
<filter id="filter3_di_206_1490" x="91.9692" y="26.5042" width="131.298" height="131.727" filterUnits="userSpaceOnUse" color-interpolation-filters="sRGB">
<feFlood flood-opacity="0" result="BackgroundImageFix"/>
<feColorMatrix in="SourceAlpha" type="matrix" values="0 0 0 0 0 0 0 0 0 0 0 0 0 0 0 0 0 0 127 0" result="hardAlpha"/>
<feOffset/>
<feGaussianBlur stdDeviation="14"/>
<feComposite in2="hardAlpha" operator="out"/>
<feColorMatrix type="matrix" values="0 0 0 0 0.419608 0 0 0 0 0.85098 0 0 0 0 0.407843 0 0 0 1 0"/>
<feBlend mode="normal" in2="BackgroundImageFix" result="effect1_dropShadow_206_1490"/>
<feBlend mode="normal" in="SourceGraphic" in2="effect1_dropShadow_206_1490" result="shape"/>
<feColorMatrix in="SourceAlpha" type="matrix" values="0 0 0 0 0 0 0 0 0 0 0 0 0 0 0 0 0 0 127 0" result="hardAlpha"/>
<feOffset/>
<feGaussianBlur stdDeviation="14"/>
<feComposite in2="hardAlpha" operator="arithmetic" k2="-1" k3="1"/>
<feColorMatrix type="matrix" values="0 0 0 0 0.419608 0 0 0 0 0.85098 0 0 0 0 0.407843 0 0 0 1 0"/>
<feBlend mode="normal" in2="shape" result="effect2_innerShadow_206_1490"/>
</filter>
<filter id="filter4_di_206_1490" x="301.347" y="1.53809" width="82.2185" height="157.507" filterUnits="userSpaceOnUse" color-interpolation-filters="sRGB">
<feFlood flood-opacity="0" result="BackgroundImageFix"/>
<feColorMatrix in="SourceAlpha" type="matrix" values="0 0 0 0 0 0 0 0 0 0 0 0 0 0 0 0 0 0 127 0" result="hardAlpha"/>
<feOffset/>
<feGaussianBlur stdDeviation="14"/>
<feComposite in2="hardAlpha" operator="out"/>
<feColorMatrix type="matrix" values="0 0 0 0 0.847059 0 0 0 0 0.231373 0 0 0 0 0.823529 0 0 0 1 0"/>
<feBlend mode="normal" in2="BackgroundImageFix" result="effect1_dropShadow_206_1490"/>
<feBlend mode="normal" in="SourceGraphic" in2="effect1_dropShadow_206_1490" result="shape"/>
<feColorMatrix in="SourceAlpha" type="matrix" values="0 0 0 0 0 0 0 0 0 0 0 0 0 0 0 0 0 0 127 0" result="hardAlpha"/>
<feOffset/>
<feGaussianBlur stdDeviation="14"/>
<feComposite in2="hardAlpha" operator="arithmetic" k2="-1" k3="1"/>
<feColorMatrix type="matrix" values="0 0 0 0 0.847059 0 0 0 0 0.231373 0 0 0 0 0.823529 0 0 0 1 0"/>
<feBlend mode="normal" in2="shape" result="effect2_innerShadow_206_1490"/>
</filter>
<filter id="filter5_d_206_1490" x="31.0508" y="124.43" width="406.041" height="141.742" filterUnits="userSpaceOnUse" color-interpolation-filters="sRGB">
<feFlood flood-opacity="0" result="BackgroundImageFix"/>
<feColorMatrix in="SourceAlpha" type="matrix" values="0 0 0 0 0 0 0 0 0 0 0 0 0 0 0 0 0 0 127 0" result="hardAlpha"/>
<feOffset/>
<feGaussianBlur stdDeviation="14"/>
<feComposite in2="hardAlpha" operator="out"/>
<feColorMatrix type="matrix" values="0 0 0 0 0.223529 0 0 0 0 0.572549 0 0 0 0 1 0 0 0 0.9 0"/>
<feBlend mode="normal" in2="BackgroundImageFix" result="effect1_dropShadow_206_1490"/>
<feBlend mode="normal" in="SourceGraphic" in2="effect1_dropShadow_206_1490" result="shape"/>
</filter>
</defs>
</svg>
